<?xml version="1.0" encoding="UTF-8" standalone="no"?>
<!-- Created with Inkscape (http://www.inkscape.org/) -->

<svg
   xmlns:dc="http://purl.org/dc/elements/1.1/"
   xmlns:cc="http://creativecommons.org/ns#"
   xmlns:rdf="http://www.w3.org/1999/02/22-rdf-syntax-ns#"
   xmlns:svg="http://www.w3.org/2000/svg"
   xmlns="http://www.w3.org/2000/svg"
   xmlns:sodipodi="http://sodipodi.sourceforge.net/DTD/sodipodi-0.dtd"
   xmlns:inkscape="http://www.inkscape.org/namespaces/inkscape"
   width="48.248234"
   height="41.804134"
   id="svg3124"
   version="1.1"
   inkscape:version="0.48.3.1 r9886"
   sodipodi:docname="mrcatinf.svg">
  <sodipodi:namedview
     id="base"
     pagecolor="#ffffff"
     bordercolor="#666666"
     borderopacity="1.0"
     inkscape:pageopacity="0.0"
     inkscape:pageshadow="2"
     inkscape:zoom="9.9256378"
     inkscape:cx="25.23693"
     inkscape:cy="12.957477"
     inkscape:document-units="px"
     inkscape:current-layer="layer1"
     showgrid="false"
     inkscape:window-width="960"
     inkscape:window-height="1148"
     inkscape:window-x="1920"
     inkscape:window-y="24"
     inkscape:window-maximized="0" />
  <defs
     id="defs3126" />
  <metadata
     id="metadata3129">
    <rdf:RDF>
      <cc:Work
         rdf:about="">
        <dc:format>image/svg+xml</dc:format>
        <dc:type
           rdf:resource="http://purl.org/dc/dcmitype/StillImage" />
        <dc:title />
      </cc:Work>
    </rdf:RDF>
  </metadata>
  <g
     transform="translate(-330.49548,-731.87778)"
     id="layer1"
     inkscape:groupmode="layer"
     inkscape:label="Layer 1">
    <g
       transform="translate(289.57844,656.1184)"
       id="g3159">
      <g
         style="font-style:normal;font-variant:normal;font-weight:normal;font-stretch:normal;letter-spacing:normal;word-spacing:normal;text-anchor:start;fill:none;stroke:#000000;stroke-linecap:butt;stroke-linejoin:miter;stroke-miterlimit:10.43299961;stroke-opacity:1;stroke-dasharray:none;stroke-dashoffset:0"
         id="content"
         transform="matrix(0.14498341,0,0,-0.14498341,-25.372097,176.15903)"
         xml:space="preserve"
         stroke-miterlimit="10.433"
         font-style="normal"
         font-variant="normal"
         font-weight="normal"
         font-stretch="normal"
         font-size-adjust="none"
         letter-spacing="normal"
         word-spacing="normal"><path
           style="fill:#000000;stroke-width:0"
           inkscape:connector-curvature="0"
           d="m 464.44,411.93 -0.19,-0.3 -0.18,-0.29 -0.19,-0.28 -0.19,-0.26 -0.18,-0.25 -0.19,-0.23 -0.19,-0.22 -0.18,-0.21 -0.19,-0.2 -0.19,-0.18 -0.18,-0.17 -0.19,-0.16 -0.19,-0.15 -0.18,-0.14 -0.19,-0.13 -0.19,-0.12 -0.19,-0.11 -0.19,-0.1 -0.19,-0.09 -0.19,-0.09 -0.19,-0.07 -0.2,-0.07 -0.19,-0.07 -0.2,-0.05 -0.19,-0.05 -0.2,-0.04 -0.2,-0.04 -0.19,-0.03 -0.41,-0.05 -0.4,-0.03 c -0.61,-0.05 -1.05,-0.05 -1.05,-1 0,-0.3 0.25,-0.55 0.64,-0.55 1.34,0 2.89,0.16 4.28,0.16 1.64,0 3.39,-0.16 4.99,-0.16 0.29,0 0.95,0 0.95,0.95 0,0.55 -0.45,0.6 -0.8,0.6 -1.15,0.09 -2.34,0.5 -2.34,1.73 0,0.61 0.3,1.16 0.69,1.84 l 3.79,6.39 h 12.5 l -0.14,1.54 h -11.42 l 9.83,16.45 1.59,-16.45 0.14,-1.54 c 0.11,-1.04 0.8,-7.82 0.8,-8.32 0,-1.5 -2.59,-1.64 -3.58,-1.64 -0.7,0 -1.2,0 -1.2,-1 0,-0.55 0.59,-0.55 0.7,-0.55 2.03,0 4.19,0.16 6.22,0.16 1.25,0 4.39,-0.16 5.64,-0.16 0.3,0 0.89,0 0.89,1 0,0.55 -0.5,0.55 -1.14,0.55 -3.09,0 -3.09,0.34 -3.25,1.79 l -3.03,31.13 c -0.11,1 -0.11,1.2 -0.95,1.2 -0.8,0 -0.99,-0.34 -1.3,-0.84 z"
           id="path3162" /></g>    </g>
    <g
       transform="translate(317.9017,656.40873)"
       id="g3186">
      <g
         style="font-style:normal;font-variant:normal;font-weight:normal;font-stretch:normal;letter-spacing:normal;word-spacing:normal;text-anchor:start;fill:none;stroke:#000000;stroke-linecap:butt;stroke-linejoin:miter;stroke-miterlimit:10.43299961;stroke-opacity:1;stroke-dasharray:none;stroke-dashoffset:0"
         word-spacing="normal"
         letter-spacing="normal"
         font-size-adjust="none"
         font-stretch="normal"
         font-weight="normal"
         font-variant="normal"
         font-style="normal"
         stroke-miterlimit="10.433"
         xml:space="preserve"
         transform="matrix(0.14498341,0,0,-0.14498341,-25.372097,176.15903)"
         id="g3188"><path
           style="fill:#000000;stroke-width:0"
           inkscape:connector-curvature="0"
           id="path3190"
           d="m 463.49,410.09 -0.05,-0.18 -0.04,-0.17 -0.05,-0.16 -0.04,-0.15 -0.04,-0.15 -0.05,-0.13 -0.05,-0.13 -0.05,-0.12 -0.05,-0.11 -0.06,-0.11 -0.07,-0.1 -0.07,-0.09 -0.07,-0.09 -0.09,-0.07 -0.09,-0.08 -0.11,-0.06 -0.11,-0.07 -0.13,-0.05 -0.13,-0.05 -0.15,-0.05 -0.16,-0.04 -0.09,-0.02 -0.09,-0.01 -0.09,-0.02 -0.1,-0.02 -0.1,-0.01 -0.1,-0.01 -0.11,-0.01 -0.12,-0.02 -0.11,-0.01 -0.13,-0.01 -0.12,0 -0.13,-0.01 -0.14,-0.01 -0.14,0 -0.14,-0.01 -0.15,0 -0.16,-0.01 -0.16,0 -0.16,0 -0.17,0 -0.18,0 -0.18,0 c -0.85,0 -1.35,0 -1.35,-1 0,-0.55 0.46,-0.55 1.35,-0.55 h 17.78 c 7.87,0 13.75,5.87 13.75,10.76 0,3.58 -2.89,6.47 -7.72,7.02 5.19,0.95 10.42,4.64 10.42,9.38 0,3.68 -3.3,6.87 -9.28,6.87 l -0.69,-1.55 c 4.38,0 5.42,-2.93 5.42,-5.12 0,-4.39 -4.28,-9.13 -10.35,-9.13 h -7.27 l -0.3,-1.09 h 9.41 c 4.78,0 5.73,-3.69 5.73,-5.83 0,-4.94 -4.43,-9.76 -10.31,-9.76 h -6.78 c -0.69,0 -0.8,0 -1.09,0.04 -0.5,0.05 -0.64,0.1 -0.64,0.5 0,0.14 0,0.25 0.25,1.14 l 3.43,13.91 0.3,1.09 3.08,12.36 c 0.45,1.74 0.54,1.89 2.7,1.89 h 6.42 l 0.69,1.55 h -16.73 c -0.94,0 -1.44,0 -1.44,-1 0,-0.55 0.44,-0.55 1.39,-0.55 0.09,0 1.05,0 1.89,-0.09 0.89,-0.11 1.34,-0.16 1.34,-0.8 0,-0.2 -0.04,-0.36 -0.2,-0.95 z" /></g>    </g>
    <g
       transform="translate(301.65595,651.25794)"
       id="g3220">
      <g
         style="font-style:normal;font-variant:normal;font-weight:normal;font-stretch:normal;letter-spacing:normal;word-spacing:normal;text-anchor:start;fill:none;stroke:#000000;stroke-linecap:butt;stroke-linejoin:miter;stroke-miterlimit:10.43299961;stroke-opacity:1;stroke-dasharray:none;stroke-dashoffset:0"
         id="g3222"
         transform="matrix(0.14498341,0,0,-0.14498341,-25.372097,176.15903)"
         xml:space="preserve"
         stroke-miterlimit="10.433"
         font-style="normal"
         font-variant="normal"
         font-weight="normal"
         font-stretch="normal"
         font-size-adjust="none"
         letter-spacing="normal"
         word-spacing="normal"><path
           style="fill:#000000;stroke-width:0"
           inkscape:connector-curvature="0"
           d="m 463.49,410.09 -0.05,-0.18 -0.04,-0.17 -0.05,-0.16 -0.04,-0.15 -0.04,-0.15 -0.05,-0.13 -0.05,-0.13 -0.05,-0.12 -0.05,-0.11 -0.06,-0.11 -0.07,-0.1 -0.07,-0.09 -0.07,-0.09 -0.09,-0.07 -0.09,-0.08 -0.11,-0.06 -0.11,-0.07 -0.13,-0.05 -0.13,-0.05 -0.15,-0.05 -0.16,-0.04 -0.09,-0.02 -0.09,-0.01 -0.09,-0.02 -0.1,-0.02 -0.1,-0.01 -0.1,-0.01 -0.11,-0.01 -0.12,-0.02 -0.11,-0.01 -0.13,-0.01 -0.12,0 -0.13,-0.01 -0.14,-0.01 -0.14,0 -0.14,-0.01 -0.15,0 -0.16,-0.01 -0.16,0 -0.16,0 -0.17,0 -0.18,0 -0.18,0 c -0.85,0 -1.35,0 -1.35,-1 0,-0.55 0.46,-0.55 1.35,-0.55 h 17.78 c 7.87,0 13.75,5.87 13.75,10.76 0,3.58 -2.89,6.47 -7.72,7.02 5.19,0.95 10.42,4.64 10.42,9.38 0,3.68 -3.3,6.87 -9.28,6.87 l -0.69,-1.55 c 4.38,0 5.42,-2.93 5.42,-5.12 0,-4.39 -4.28,-9.13 -10.35,-9.13 h -7.27 l -0.3,-1.09 h 9.41 c 4.78,0 5.73,-3.69 5.73,-5.83 0,-4.94 -4.43,-9.76 -10.31,-9.76 h -6.78 c -0.69,0 -0.8,0 -1.09,0.04 -0.5,0.05 -0.64,0.1 -0.64,0.5 0,0.14 0,0.25 0.25,1.14 l 3.43,13.91 0.3,1.09 3.08,12.36 c 0.45,1.74 0.54,1.89 2.7,1.89 h 6.42 l 0.69,1.55 h -16.73 c -0.94,0 -1.44,0 -1.44,-1 0,-0.55 0.44,-0.55 1.39,-0.55 0.09,0 1.05,0 1.89,-0.09 0.89,-0.11 1.34,-0.16 1.34,-0.8 0,-0.2 -0.04,-0.36 -0.2,-0.95 z"
           id="path3224" /><path
           style="fill:#000000;stroke-width:0"
           inkscape:connector-curvature="0"
           d="m 503.01,428.39 -0.11,-0.18 -0.12,-0.17 -0.11,-0.16 -0.11,-0.16 -0.12,-0.15 -0.11,-0.14 -0.11,-0.14 -0.12,-0.14 -0.11,-0.13 -0.12,-0.12 -0.12,-0.12 -0.12,-0.12 -0.12,-0.1 -0.12,-0.11 -0.13,-0.1 -0.13,-0.09 -0.13,-0.09 -0.13,-0.08 -0.14,-0.08 -0.13,-0.07 -0.15,-0.07 -0.14,-0.06 -0.15,-0.06 -0.15,-0.05 -0.16,-0.05 -0.16,-0.04 -0.17,-0.04 -0.17,-0.03 -0.17,-0.03 -0.18,-0.03 -0.19,-0.02 -0.19,-0.01 c -0.34,-0.03 -0.8,-0.03 -0.8,-0.74 0,-0.37 0.32,-0.51 0.49,-0.51 0.9,0 2.06,0.14 3,0.14 1.11,0 2.55,-0.14 3.59,-0.14 0.17,0 0.69,0 0.69,0.76 0,0.46 -0.45,0.49 -0.58,0.49 -0.28,0.05 -1.55,0.11 -1.55,1.05 0,0.42 0.36,1.01 0.54,1.32 l 2.78,4.32 h 9.97 l -0.18,1.26 h -8.95 l 7.31,11.39 1.64,-11.39 0.18,-1.26 0.84,-5.78 c -0.14,-0.35 -0.36,-0.91 -2.41,-0.91 -0.42,0 -0.9,0 -0.9,-0.77 0,-0.14 0.09,-0.48 0.54,-0.48 1.02,0 3.49,0.14 4.5,0.14 0.63,0 1.43,-0.03 2.07,-0.03 0.62,-0.05 1.36,-0.11 1.98,-0.11 0.45,0 0.69,0.28 0.69,0.73 0,0.52 -0.41,0.52 -0.97,0.52 -2.02,0 -2.09,0.28 -2.2,1.12 l -3.07,21.5 c -0.1,0.72 -0.17,0.97 -0.82,0.97 -0.68,0 -0.88,-0.31 -1.19,-0.79 z"
           id="path3226" /></g>    </g>
    <g
       transform="translate(323.96014,645.97065)"
       id="g3264">
      <g
         style="font-style:normal;font-variant:normal;font-weight:normal;font-stretch:normal;letter-spacing:normal;word-spacing:normal;text-anchor:start;fill:none;stroke:#000000;stroke-linecap:butt;stroke-linejoin:miter;stroke-miterlimit:10.43299961;stroke-opacity:1;stroke-dasharray:none;stroke-dashoffset:0"
         word-spacing="normal"
         letter-spacing="normal"
         font-size-adjust="none"
         font-stretch="normal"
         font-weight="normal"
         font-variant="normal"
         font-style="normal"
         stroke-miterlimit="10.433"
         xml:space="preserve"
         transform="matrix(0.14498341,0,0,-0.14498341,-25.372097,176.15903)"
         id="g3266"><path
           style="fill:#000000;stroke-width:0"
           inkscape:connector-curvature="0"
           id="path3268"
           d="m 463.49,409.73 -0.05,-0.18 -0.04,-0.17 -0.05,-0.16 -0.04,-0.15 -0.04,-0.15 -0.05,-0.13 -0.05,-0.13 -0.05,-0.12 -0.05,-0.11 -0.06,-0.11 -0.07,-0.1 -0.07,-0.09 -0.07,-0.08 -0.09,-0.08 -0.09,-0.08 -0.11,-0.06 -0.11,-0.07 -0.13,-0.05 -0.13,-0.05 -0.15,-0.05 -0.16,-0.04 -0.09,-0.02 -0.09,-0.01 -0.09,-0.02 -0.1,-0.01 -0.1,-0.02 -0.1,-0.01 -0.11,-0.01 -0.12,-0.01 -0.11,-0.01 -0.13,-0.01 -0.12,-0.01 -0.13,-0.01 -0.14,-0.01 -0.14,0 -0.14,-0.01 -0.15,0 -0.16,-0.01 -0.16,0 -0.16,0 -0.17,0 -0.18,0 -0.18,0 c -0.85,0 -1.35,0 -1.35,-1 0,-0.55 0.46,-0.55 1.35,-0.55 h 17.78 c 7.87,0 13.75,5.87 13.75,10.77 0,3.57 -2.89,6.46 -7.72,7.01 5.19,0.95 10.42,4.64 10.42,9.38 0,3.68 -3.3,6.87 -9.28,6.87 l -0.69,-1.55 c 4.38,0 5.42,-2.93 5.42,-5.12 0,-4.39 -4.28,-9.13 -10.35,-9.13 h -7.27 l -0.3,-1.09 h 9.41 c 4.78,0 5.73,-3.69 5.73,-5.83 0,-4.94 -4.43,-9.76 -10.31,-9.76 h -6.78 c -0.69,0 -0.8,0 -1.09,0.04 -0.5,0.05 -0.64,0.1 -0.64,0.5 0,0.14 0,0.25 0.25,1.14 l 3.43,13.91 0.3,1.09 3.08,12.36 c 0.45,1.74 0.54,1.89 2.7,1.89 h 6.42 l 0.69,1.55 h -16.73 c -0.94,0 -1.44,0 -1.44,-1 0,-0.55 0.44,-0.55 1.39,-0.55 0.09,0 1.05,0 1.89,-0.09 0.89,-0.11 1.34,-0.16 1.34,-0.8 0,-0.2 -0.04,-0.36 -0.2,-0.95 z" /><path
           style="fill:#000000;stroke-width:0"
           inkscape:connector-curvature="0"
           id="path3270"
           d="m 503.01,428.15 -0.11,-0.18 -0.12,-0.16 -0.11,-0.17 -0.11,-0.16 -0.12,-0.15 -0.11,-0.14 -0.11,-0.14 -0.12,-0.14 -0.11,-0.13 -0.12,-0.12 -0.12,-0.12 -0.12,-0.11 -0.12,-0.11 -0.12,-0.11 -0.13,-0.09 -0.13,-0.1 -0.13,-0.08 -0.13,-0.09 -0.14,-0.07 -0.13,-0.08 -0.15,-0.06 -0.14,-0.07 -0.15,-0.05 -0.15,-0.06 -0.16,-0.04 -0.16,-0.05 -0.17,-0.04 -0.17,-0.03 -0.17,-0.03 -0.18,-0.02 -0.19,-0.02 -0.19,-0.02 c -0.34,-0.03 -0.8,-0.03 -0.8,-0.73 0,-0.38 0.32,-0.52 0.49,-0.52 0.9,0 2.06,0.14 3,0.14 1.11,0 2.55,-0.14 3.59,-0.14 0.17,0 0.69,0 0.69,0.77 0,0.45 -0.45,0.48 -0.58,0.48 -0.28,0.05 -1.55,0.11 -1.55,1.05 0,0.42 0.36,1.01 0.54,1.33 l 2.78,4.31 h 9.97 l -0.18,1.26 h -8.95 l 7.31,11.39 1.64,-11.39 0.18,-1.26 0.84,-5.78 c -0.14,-0.35 -0.36,-0.91 -2.41,-0.91 -0.42,0 -0.9,0 -0.9,-0.76 0,-0.15 0.09,-0.49 0.54,-0.49 1.02,0 3.49,0.14 4.5,0.14 0.63,0 1.43,-0.03 2.07,-0.03 0.62,-0.05 1.36,-0.11 1.98,-0.11 0.45,0 0.69,0.28 0.69,0.74 0,0.51 -0.41,0.51 -0.97,0.51 -2.02,0 -2.09,0.28 -2.2,1.13 l -3.07,21.5 c -0.1,0.71 -0.17,0.96 -0.82,0.96 -0.68,0 -0.88,-0.31 -1.19,-0.79 z" /><path
           style="fill:#000000;stroke-width:0"
           inkscape:connector-curvature="0"
           id="path3272"
           d="m 532.01,441.02 -0.02,-0.07 -0.01,-0.06 -0.02,-0.06 -0.02,-0.06 -0.01,-0.06 -0.02,-0.05 -0.02,-0.05 -0.02,-0.05 -0.02,-0.04 -0.03,-0.05 -0.03,-0.04 -0.03,-0.03 -0.03,-0.04 -0.04,-0.03 -0.05,-0.03 -0.04,-0.03 -0.06,-0.02 -0.06,-0.03 -0.06,-0.02 -0.07,-0.02 -0.04,0 -0.04,-0.01 -0.04,-0.01 -0.04,-0.01 -0.04,0 -0.05,-0.01 -0.05,-0.01 -0.05,0 -0.05,-0.01 -0.05,0 -0.06,-0.01 -0.06,0 -0.06,-0.01 -0.06,0 -0.06,0 -0.07,0 -0.07,-0.01 -0.07,0 -0.08,0 -0.07,0 -0.08,0 -0.09,0 -0.08,0 -0.09,0 c -0.65,0 -1.05,0 -1.05,-0.71 0,-0.42 0.4,-0.42 0.83,-0.42 h 10.83 c 4.49,0 8.13,2.8 8.13,5.28 0,1.55 -1.46,3.22 -4.85,3.64 2.47,0.32 5.99,1.97 5.99,4.46 0,2.09 -2.47,3.64 -5.86,3.64 l -0.44,-1.13 c 2.47,0 3.64,-1.26 3.64,-2.59 0,-2.02 -2.7,-4.03 -6.19,-4.03 h -4.7 L 536,447.38 h 6.07 c 2.55,0 3.82,-1.47 3.82,-3.04 0,-2.41 -2.96,-4.25 -6.05,-4.25 h -4.81 c -0.19,0 -0.55,0 -0.8,0.04 0.03,0.21 0.03,0.25 0.08,0.46 l 1.69,6.79 0.23,0.85 1.44,5.81 c 0.2,0.76 0.2,0.81 1.25,0.81 h 4.56 l 0.44,1.13 h -10.2 c -0.47,0 -0.88,0 -0.88,-0.71 0,-0.42 0.33,-0.42 0.92,-0.42 0.25,0 1.08,0 1.59,-0.14 0,-0.31 0,-0.36 -0.07,-0.62 z" /></g>    </g>
    <g
       transform="translate(306.25708,637.84268)"
       id="g3320">
      <g
         style="font-style:normal;font-variant:normal;font-weight:normal;font-stretch:normal;letter-spacing:normal;word-spacing:normal;text-anchor:start;fill:none;stroke:#000000;stroke-linecap:butt;stroke-linejoin:miter;stroke-miterlimit:10.43299961;stroke-opacity:1;stroke-dasharray:none;stroke-dashoffset:0"
         id="g3322"
         transform="matrix(0.14498341,0,0,-0.14498341,-25.372097,176.15903)"
         xml:space="preserve"
         stroke-miterlimit="10.433"
         font-style="normal"
         font-variant="normal"
         font-weight="normal"
         font-stretch="normal"
         font-size-adjust="none"
         letter-spacing="normal"
         word-spacing="normal"><path
           style="fill:#000000;stroke-width:0"
           inkscape:connector-curvature="0"
           d="m 463.49,389.69 -0.05,-0.18 -0.04,-0.17 -0.05,-0.16 -0.04,-0.15 -0.04,-0.14 -0.05,-0.14 -0.05,-0.13 -0.05,-0.12 -0.05,-0.11 -0.06,-0.11 -0.07,-0.1 -0.07,-0.09 -0.07,-0.08 -0.09,-0.08 -0.09,-0.08 -0.11,-0.06 -0.11,-0.06 -0.13,-0.06 -0.13,-0.05 -0.15,-0.05 -0.16,-0.04 -0.09,-0.01 -0.09,-0.02 -0.09,-0.02 -0.1,-0.01 -0.1,-0.02 -0.1,-0.01 -0.11,-0.01 -0.12,-0.01 -0.11,-0.01 -0.13,-0.01 -0.12,-0.01 -0.13,-0.01 -0.14,-0.01 -0.14,0 -0.14,-0.01 -0.15,0 -0.16,0 -0.16,-0.01 -0.16,0 -0.17,0 -0.18,0 -0.18,0 c -0.85,0 -1.35,0 -1.35,-1 0,-0.55 0.46,-0.55 1.35,-0.55 h 17.78 c 7.87,0 13.75,5.88 13.75,10.77 0,3.57 -2.89,6.47 -7.72,7.01 5.19,0.96 10.42,4.64 10.42,9.38 0,3.68 -3.3,6.87 -9.28,6.87 l -0.69,-1.54 c 4.38,0 5.42,-2.94 5.42,-5.13 0,-4.39 -4.28,-9.12 -10.35,-9.12 h -7.27 l -0.3,-1.1 h 9.41 c 4.78,0 5.73,-3.69 5.73,-5.83 0,-4.93 -4.43,-9.76 -10.31,-9.76 h -6.78 c -0.69,0 -0.8,0 -1.09,0.04 -0.5,0.05 -0.64,0.1 -0.64,0.5 0,0.15 0,0.25 0.25,1.15 l 3.43,13.9 0.3,1.1 3.08,12.35 c 0.45,1.74 0.54,1.9 2.7,1.9 h 6.42 l 0.69,1.54 h -16.73 c -0.94,0 -1.44,0 -1.44,-1 0,-0.54 0.44,-0.54 1.39,-0.54 0.09,0 1.05,0 1.89,-0.1 0.89,-0.11 1.34,-0.15 1.34,-0.8 0,-0.2 -0.04,-0.35 -0.2,-0.95 z"
           id="path3324" /><path
           style="fill:#000000;stroke-width:0"
           inkscape:connector-curvature="0"
           d="m 503.01,407.99 -0.11,-0.18 -0.12,-0.16 -0.11,-0.17 -0.11,-0.16 -0.12,-0.15 -0.11,-0.14 -0.11,-0.14 -0.12,-0.14 -0.11,-0.13 -0.12,-0.12 -0.12,-0.12 -0.12,-0.11 -0.12,-0.11 -0.12,-0.11 -0.13,-0.09 -0.13,-0.1 -0.13,-0.08 -0.13,-0.09 -0.14,-0.07 -0.13,-0.08 -0.15,-0.06 -0.14,-0.07 -0.15,-0.05 -0.15,-0.06 -0.16,-0.04 -0.16,-0.05 -0.17,-0.04 -0.17,-0.03 -0.17,-0.03 -0.18,-0.02 -0.19,-0.02 -0.19,-0.02 c -0.34,-0.03 -0.8,-0.03 -0.8,-0.73 0,-0.38 0.32,-0.52 0.49,-0.52 0.9,0 2.06,0.14 3,0.14 1.11,0 2.55,-0.14 3.59,-0.14 0.17,0 0.69,0 0.69,0.77 0,0.45 -0.45,0.48 -0.58,0.48 -0.28,0.05 -1.55,0.11 -1.55,1.05 0,0.42 0.36,1.01 0.54,1.33 l 2.78,4.31 h 9.97 l -0.18,1.26 h -8.95 l 7.31,11.39 1.64,-11.39 0.18,-1.26 0.84,-5.78 c -0.14,-0.35 -0.36,-0.91 -2.41,-0.91 -0.42,0 -0.9,0 -0.9,-0.76 0,-0.15 0.09,-0.49 0.54,-0.49 1.02,0 3.49,0.14 4.5,0.14 0.63,0 1.43,-0.03 2.07,-0.03 0.62,-0.05 1.36,-0.11 1.98,-0.11 0.45,0 0.69,0.28 0.69,0.74 0,0.51 -0.41,0.51 -0.97,0.51 -2.02,0 -2.09,0.28 -2.2,1.13 l -3.07,21.5 c -0.1,0.71 -0.17,0.96 -0.82,0.96 -0.68,0 -0.88,-0.31 -1.19,-0.79 z"
           id="path3326" /><path
           style="fill:#000000;stroke-width:0"
           inkscape:connector-curvature="0"
           d="m 532.01,420.98 -0.02,-0.06 -0.01,-0.07 -0.02,-0.06 -0.02,-0.06 -0.01,-0.06 -0.02,-0.05 -0.02,-0.05 -0.02,-0.05 -0.02,-0.04 -0.03,-0.05 -0.03,-0.04 -0.03,-0.03 -0.03,-0.04 -0.04,-0.03 -0.05,-0.03 -0.04,-0.03 -0.06,-0.02 -0.06,-0.02 -0.06,-0.03 -0.07,-0.01 -0.04,-0.01 -0.04,-0.01 -0.04,-0.01 -0.04,-0.01 -0.04,0 -0.05,-0.01 -0.05,-0.01 -0.05,0 -0.05,-0.01 -0.05,0 -0.06,-0.01 -0.06,0 -0.06,0 -0.06,-0.01 -0.06,0 -0.07,0 -0.07,-0.01 -0.07,0 -0.08,0 -0.07,0 -0.08,0 -0.09,0 -0.08,0 -0.09,0 c -0.65,0 -1.05,0 -1.05,-0.71 0,-0.42 0.4,-0.42 0.83,-0.42 h 10.83 c 4.49,0 8.13,2.8 8.13,5.28 0,1.55 -1.46,3.22 -4.85,3.64 2.47,0.32 5.99,1.97 5.99,4.46 0,2.09 -2.47,3.64 -5.86,3.64 l -0.44,-1.13 c 2.47,0 3.64,-1.26 3.64,-2.59 0,-2.02 -2.7,-4.03 -6.19,-4.03 h -4.7 L 536,427.34 h 6.07 c 2.55,0 3.82,-1.46 3.82,-3.04 0,-2.41 -2.96,-4.25 -6.05,-4.25 h -4.81 c -0.19,0 -0.55,0 -0.8,0.04 0.03,0.21 0.03,0.25 0.08,0.46 l 1.69,6.79 0.23,0.85 1.44,5.81 c 0.2,0.77 0.2,0.81 1.25,0.81 h 4.56 l 0.44,1.13 h -10.2 c -0.47,0 -0.88,0 -0.88,-0.71 0,-0.42 0.33,-0.42 0.92,-0.42 0.25,0 1.08,0 1.59,-0.14 0,-0.31 0,-0.36 -0.07,-0.62 z"
           id="path3328" /><path
           style="fill:#000000;stroke-width:0"
           inkscape:connector-curvature="0"
           d="m 559.01,430.94 -0.02,-0.07 -0.01,-0.06 -0.02,-0.07 -0.02,-0.05 -0.01,-0.06 -0.02,-0.05 -0.02,-0.05 -0.02,-0.05 -0.02,-0.05 -0.03,-0.04 -0.03,-0.04 -0.03,-0.04 -0.03,-0.03 -0.04,-0.03 -0.05,-0.03 -0.04,-0.03 -0.06,-0.02 -0.06,-0.03 -0.06,-0.02 -0.07,-0.02 -0.04,-0.01 -0.04,0 -0.04,-0.01 -0.04,-0.01 -0.04,-0.01 -0.05,0 -0.05,-0.01 -0.05,-0.01 -0.05,0 -0.05,-0.01 -0.06,0 -0.06,0 -0.06,-0.01 -0.06,0 -0.06,0 -0.07,-0.01 -0.07,0 -0.07,0 -0.08,0 -0.07,0 -0.08,0 -0.09,-0.01 -0.08,0 -0.09,0 c -0.65,0 -1.05,0 -1.05,-0.7 0,-0.42 0.4,-0.42 0.83,-0.42 h 10.83 c 4.49,0 8.13,2.8 8.13,5.28 0,1.55 -1.46,3.22 -4.85,3.64 2.47,0.31 5.99,1.97 5.99,4.45 0,2.1 -2.47,3.64 -5.86,3.64 l -0.44,-1.12 c 2.47,0 3.64,-1.27 3.64,-2.59 0,-2.02 -2.7,-4.04 -6.19,-4.04 h -4.7 L 563,437.3 h 6.07 c 2.55,0 3.82,-1.47 3.82,-3.05 0,-2.4 -2.96,-4.25 -6.05,-4.25 h -4.81 c -0.19,0 -0.55,0 -0.8,0.05 0.03,0.2 0.03,0.25 0.08,0.45 l 1.69,6.8 0.23,0.84 1.44,5.82 c 0.2,0.76 0.2,0.81 1.25,0.81 h 4.56 l 0.44,1.12 h -10.2 c -0.47,0 -0.88,0 -0.88,-0.7 0,-0.42 0.33,-0.42 0.92,-0.42 0.25,0 1.08,0 1.59,-0.14 0,-0.31 0,-0.36 -0.07,-0.63 z"
           id="path3330" /><path
           style="fill:#000000;stroke-width:0"
           inkscape:connector-curvature="0"
           d="m 597.95,456.12 -0.01,0.05 -0.01,0.04 -0.01,0.05 -0.01,0.04 -0.01,0.04 -0.01,0.04 -0.01,0.03 -0.01,0.04 -0.01,0.03 -0.02,0.03 -0.01,0.03 -0.02,0.03 -0.01,0.02 -0.02,0.03 -0.02,0.02 -0.02,0.02 -0.02,0.02 -0.02,0.02 -0.02,0.01 -0.03,0.02 -0.03,0.01 -0.02,0.01 -0.03,0.01 -0.04,0.01 -0.03,0.01 -0.04,0.01 -0.04,0 -0.04,0.01 -0.04,0 -0.04,0 -0.05,0 -0.05,0 c -0.6,0 -0.75,-0.2 -1,-0.57 l -9.77,-14.16 c -1.03,-1.52 -1.9,-1.91 -3.53,-1.98 -0.47,-0.04 -0.47,-0.68 -0.47,-0.71 0,-0.34 0.3,-0.42 0.39,-0.42 0.36,0 0.78,0.08 1.13,0.08 0.42,0 0.84,0.01 1.27,0.01 0.48,0 0.92,-0.01 1.37,-0.01 0.45,0 0.97,-0.08 1.42,-0.08 0.17,0 0.59,0 0.59,0.7 0,0.39 -0.37,0.43 -0.46,0.43 -0.21,0 -1.17,0.04 -1.17,0.64 0,0.29 0.29,0.72 0.46,0.97 l 1.83,2.67 c 0.13,0.15 0.14,0.17 0.61,0.17 h 7.56 l -0.2,1.12 h -7.08 l 5.57,8.07 1.51,-8.07 0.2,-1.12 c 0.05,-0.3 0.07,-0.42 0.14,-0.72 0.08,-0.45 0.58,-2.94 0.58,-3.19 0,-0.54 -1.58,-0.54 -1.7,-0.54 -0.38,0 -0.77,0 -0.77,-0.71 0,-0.25 0.17,-0.42 0.46,-0.42 0.51,0 1.11,0.08 1.65,0.08 0.61,0 1.18,0.01 1.78,0.01 0.52,0 1.07,-0.01 1.6,-0.01 0.5,0 1.06,-0.08 1.56,-0.08 0.42,0 0.59,0.3 0.59,0.7 0,0.43 -0.39,0.43 -0.73,0.43 -1.66,0 -1.67,0.17 -1.78,0.71 z"
           id="path3332" /></g>    </g>
    <g
       id="g3394"
       transform="translate(307.59011,655.07928)">
      <g
         word-spacing="normal"
         letter-spacing="normal"
         font-size-adjust="none"
         font-stretch="normal"
         font-weight="normal"
         font-variant="normal"
         font-style="normal"
         stroke-miterlimit="10.433"
         xml:space="preserve"
         transform="matrix(0.14498341,0,0,-0.14498341,-25.372097,176.15903)"
         id="g3396"
         style="font-style:normal;font-variant:normal;font-weight:normal;font-stretch:normal;letter-spacing:normal;word-spacing:normal;text-anchor:start;fill:none;stroke:#000000;stroke-linecap:butt;stroke-linejoin:miter;stroke-miterlimit:10.43299961;stroke-opacity:1;stroke-dasharray:none;stroke-dashoffset:0"><path
           id="path3398"
           d="m 488.35,417.65 0.16,0 0.16,0 0.15,0.01 0.08,0 0.08,0.01 0.07,0 0.08,0.01 0.07,0.01 0.07,0.01 0.07,0.02 0.07,0.02 0.07,0.02 0.06,0.02 0.06,0.02 0.06,0.03 0.05,0.03 0.06,0.04 0.05,0.03 0.04,0.05 0.04,0.04 0.04,0.05 0.02,0.03 0.02,0.03 0.01,0.03 0.02,0.03 0.01,0.03 0.02,0.03 0.01,0.04 0.01,0.03 0.01,0.04 0,0.04 0.01,0.04 0.01,0.04 0,0.04 0.01,0.04 0,0.05 0,0.04 c 0,1 -0.91,1 -1.75,1 l -108.60281,0 c -0.84,0 -1.73,0 -1.73,-1 0,-1 0.89,-1 1.73,-1 z"
           inkscape:connector-curvature="0"
           style="fill:#000000;stroke-width:0"
           sodipodi:nodetypes="cccccccccccccccccccccccccccccccccccccsssssc" /><path
           id="path3400"
           d="m 527.54,417.65 -0.25,-0.19 -0.24,-0.2 -0.24,-0.19 -0.23,-0.2 -0.22,-0.19 -0.21,-0.19 -0.21,-0.19 -0.19,-0.19 -0.19,-0.18 -0.19,-0.18 -0.17,-0.18 -0.17,-0.18 -0.16,-0.17 -0.16,-0.17 -0.14,-0.17 -0.14,-0.16 -0.14,-0.15 -0.12,-0.16 -0.12,-0.15 -0.11,-0.14 -0.11,-0.14 -0.1,-0.13 -0.1,-0.13 -0.08,-0.12 -0.09,-0.11 -0.07,-0.11 -0.07,-0.11 -0.06,-0.09 -0.06,-0.09 -0.05,-0.08 -0.05,-0.07 -0.04,-0.07 c -2.24,-3.44 -2.64,-6.58 -2.64,-6.62 0,-0.6 0.61,-0.6 1,-0.6 0.84,0 0.89,0.1 1.09,1 1.16,4.88 4.09,9.06 9.72,11.36 0.59,0.19 0.75,0.3 0.75,0.64 0,0.35 -0.3,0.5 -0.41,0.55 -2.18,0.84 -8.22,3.34 -10.1,11.72 -0.16,0.59 -0.21,0.73 -1.05,0.73 -0.39,0 -1,0 -1,-0.59 0,-0.1 0.45,-3.24 2.55,-6.58 1,-1.48 2.43,-3.23 4.57,-4.83 h -37.01 c -0.89,0 -1.8,0 -1.8,-1 0,-1 0.91,-1 1.8,-1 z"
           inkscape:connector-curvature="0"
           style="fill:#000000;stroke-width:0" /></g>    </g>
    <path
       id="path3400-2-8"
       d="m 354.41202,765.51873 0.0384,-0.0243 0.0371,-0.0259 0.037,-0.0245 0.0357,-0.026 0.0341,-0.0247 0.0326,-0.0248 0.0326,-0.0249 0.0299,-0.025 0.0297,-0.0236 0.0296,-0.0237 0.0268,-0.0239 0.0268,-0.0239 0.0252,-0.0226 0.0252,-0.0225 0.0223,-0.0228 0.0222,-0.0214 0.0221,-0.0199 0.0193,-0.0216 0.0192,-0.0201 0.0177,-0.0189 0.0176,-0.0189 0.0161,-0.0176 0.0161,-0.0175 0.013,-0.0163 0.0144,-0.0147 0.0114,-0.015 0.0115,-0.015 0.0101,-0.0123 0.0101,-0.0122 0.008,-0.011 0.008,-0.01 0.007,-0.01 c 0.3662,-0.46917 0.46288,-0.9178 0.46337,-0.92358 0.007,-0.0867 -0.0806,-0.0942 -0.13701,-0.0991 -0.12135,-0.0104 -0.12981,0.003 -0.16985,0.13095 -0.22802,0.69056 -0.70305,1.25808 -1.54481,1.52058 -0.0875,0.0201 -0.11206,0.034 -0.11627,0.0832 -0.004,0.0505 0.0371,0.0759 0.0524,0.0845 0.30451,0.14835 1.14603,0.58431 1.31378,1.81811 0.0158,0.0872 0.0213,0.10805 0.14264,0.11846 0.0563,0.005 0.14445,0.0124 0.15176,-0.0728 10e-4,-0.0145 -0.0248,-0.47361 -0.28684,-0.9821 -0.12612,-0.22618 -0.31101,-0.49669 -0.60032,-0.75432 0.0234,-0.27228 0.0197,-0.2333 0.0245,-0.28926 z"
       inkscape:connector-curvature="0"
       style="font-style:normal;font-variant:normal;font-weight:normal;font-stretch:normal;letter-spacing:normal;word-spacing:normal;text-anchor:start;fill:#000000;stroke:#000000;stroke-width:0;stroke-linecap:butt;stroke-linejoin:miter;stroke-miterlimit:10.43299961;stroke-opacity:1;stroke-dasharray:none;stroke-dashoffset:0"
       sodipodi:nodetypes="cccccccccccccccccccccccccccccccccssccsccssccc" />
    <path
       style="fill:none;stroke:#000000;stroke-width:0.25;stroke-linecap:butt;stroke-linejoin:miter;stroke-miterlimit:4;stroke-opacity:1;stroke-dasharray:none"
       d="m 42.495166,32.785782 c 4.359485,-0.03927 8.195232,0.314155 11.396115,-0.903359 C 57.092165,30.664909 55.34814,27.59149 46.197148,27.395116 27.895163,27.002369 32.04811,27.208782 32.04811,27.208782"
       id="path4252"
       inkscape:connector-curvature="0"
       transform="translate(322.34114,738.46111)"
       sodipodi:nodetypes="cssc" />
    <path
       style="fill:none;stroke:#000000;stroke-width:0.25;stroke-linecap:butt;stroke-linejoin:miter;stroke-miterlimit:4;stroke-opacity:1;stroke-dasharray:none"
       d="M 25.286206,23.797093 C 25.607097,19.112085 41.39493,21.358322 41.39493,21.358322"
       id="path4254"
       inkscape:connector-curvature="0"
       transform="translate(322.34114,738.46111)" />
    <path
       id="path3400-2-8-4"
       d="m 363.74324,759.67772 -0.0323,-0.0319 -0.0307,-0.0332 -0.0309,-0.0318 -0.0294,-0.033 -0.0281,-0.0314 -0.0265,-0.0312 -0.0265,-0.0312 -0.0239,-0.0308 -0.024,-0.0294 -0.0238,-0.0295 -0.021,-0.0291 -0.0211,-0.0291 -0.0198,-0.0275 -0.0198,-0.0274 -0.017,-0.027 -0.0172,-0.0256 -0.0174,-0.0241 -0.0143,-0.0252 -0.0145,-0.0238 -0.0132,-0.0223 -0.0131,-0.0222 -0.0119,-0.0207 -0.012,-0.0206 -0.009,-0.0187 -0.0109,-0.0174 -0.008,-0.0171 -0.008,-0.0171 -0.007,-0.0142 -0.007,-0.0141 -0.006,-0.0125 -0.006,-0.0115 -0.005,-0.0113 c -0.25752,-0.53656 -0.25613,-0.99549 -0.25538,-1.00124 0.0116,-0.0861 0.0989,-0.0748 0.15502,-0.0676 0.12077,0.0158 0.12616,0.0307 0.13795,0.16421 0.0753,0.72333 0.41809,1.37922 1.18434,1.81547 0.0812,0.0384 0.10221,0.0571 0.0958,0.10612 -0.007,0.0502 -0.0525,0.0662 -0.0692,0.0714 -0.32917,0.0799 -1.2444,0.32602 -1.67182,1.49551 -0.0341,0.0819 -0.0439,0.101 -0.16466,0.0852 -0.0561,-0.007 -0.14377,-0.0188 -0.13271,-0.10354 0.002,-0.0144 0.1254,-0.45739 0.49001,-0.89816 0.17152,-0.19402 0.40993,-0.41879 0.74759,-0.60867 0.0353,-0.271 0.0306,-0.23213 0.0379,-0.28783 z"
       inkscape:connector-curvature="0"
       style="font-style:normal;font-variant:normal;font-weight:normal;font-stretch:normal;letter-spacing:normal;word-spacing:normal;text-anchor:start;fill:#000000;stroke:#000000;stroke-width:0;stroke-linecap:butt;stroke-linejoin:miter;stroke-miterlimit:10.43299961;stroke-opacity:1;stroke-dasharray:none;stroke-dashoffset:0"
       sodipodi:nodetypes="cccccccccccccccccccccccccccccccccssccsccssccc" />
    <g
       transform="matrix(-0.05872173,0.24032543,-0.21897804,-0.05350565,465.41998,677.56984)"
       id="g3694-5-8">
      <g
         style="font-style:normal;font-variant:normal;font-weight:normal;font-stretch:normal;letter-spacing:normal;word-spacing:normal;text-anchor:start;fill:none;stroke:#000000;stroke-linecap:butt;stroke-linejoin:miter;stroke-miterlimit:10.43299961;stroke-opacity:1;stroke-dasharray:none;stroke-dashoffset:0"
         id="g3696-4-2"
         transform="matrix(1.0629921,0,0,-1.0629921,-191.78023,763.41534)"
         xml:space="preserve"
         stroke-miterlimit="10.433"
         font-style="normal"
         font-variant="normal"
         font-weight="normal"
         font-stretch="normal"
         font-size-adjust="none"
         letter-spacing="normal"
         word-spacing="normal"><path
           style="fill:#000000;stroke-width:0"
           inkscape:connector-curvature="0"
           d="m 465.08,418.65 0,0.14 -0.01,0.13 -0.02,0.13 -0.02,0.13 -0.03,0.13 -0.04,0.13 -0.04,0.12 -0.05,0.12 -0.05,0.11 -0.06,0.12 -0.06,0.11 -0.07,0.11 -0.07,0.1 -0.08,0.1 -0.09,0.1 -0.08,0.09 -0.1,0.08 -0.09,0.09 -0.1,0.08 -0.1,0.07 -0.11,0.07 -0.11,0.06 -0.12,0.06 -0.11,0.05 -0.12,0.05 -0.13,0.04 -0.12,0.04 -0.13,0.03 -0.13,0.02 -0.13,0.02 -0.13,0.01 -0.14,0 c -1.44,0 -2.64,-1.18 -2.64,-2.64 0,-1.44 1.2,-2.64 2.64,-2.64 1.45,0 2.64,1.2 2.64,2.64 z"
           id="path3698-4-2" /><path
           style="fill:#000000;stroke-width:0"
           inkscape:connector-curvature="0"
           d="m 487.16,418.65 0,0.14 -0.01,0.13 -0.02,0.13 -0.02,0.13 -0.03,0.13 -0.04,0.13 -0.04,0.12 -0.05,0.12 -0.05,0.11 -0.06,0.12 -0.06,0.11 -0.07,0.11 -0.08,0.1 -0.07,0.1 -0.09,0.1 -0.09,0.09 -0.09,0.08 -0.09,0.09 -0.1,0.08 -0.11,0.07 -0.1,0.07 -0.11,0.06 -0.12,0.06 -0.11,0.05 -0.12,0.05 -0.13,0.04 -0.12,0.04 -0.13,0.03 -0.13,0.02 -0.13,0.02 -0.13,0.01 -0.14,0 c -1.44,0 -2.64,-1.18 -2.64,-2.64 0,-1.44 1.2,-2.64 2.64,-2.64 1.45,0 2.64,1.2 2.64,2.64 z"
           id="path3700-9-1" /><path
           style="fill:#000000;stroke-width:0"
           inkscape:connector-curvature="0"
           d="m 509.23,418.65 0,0.14 -0.01,0.13 -0.02,0.13 -0.02,0.13 -0.03,0.13 -0.04,0.13 -0.04,0.12 -0.04,0.12 -0.06,0.11 -0.06,0.12 -0.06,0.11 -0.07,0.11 -0.07,0.1 -0.08,0.1 -0.08,0.1 -0.09,0.09 -0.09,0.08 -0.1,0.09 -0.1,0.08 -0.1,0.07 -0.11,0.07 -0.11,0.06 -0.11,0.06 -0.12,0.05 -0.12,0.05 -0.12,0.04 -0.13,0.04 -0.13,0.03 -0.13,0.02 -0.13,0.02 -0.13,0.01 -0.14,0 c -1.43,0 -2.64,-1.18 -2.64,-2.64 0,-1.44 1.21,-2.64 2.64,-2.64 1.46,0 2.64,1.2 2.64,2.64 z"
           id="path3702-0-6" /></g>    </g>
  </g>
</svg>
